# xmcd
#
# Track frame offsets: 
#        150
#        22997
#        49266
#        66223
#        92235
#        123723
#        143927
#        168288
#        201665
#        225542
#        249867
#        271461
#        301306
#
# Disc length: 4237 seconds
#
# Revision: 0
# Processed by: cddbd v1.5.2PL0 Copyright (c) Steve Scherf et al.
# Submitted via: ExactAudioCopy v1.2
#
DISCID=ba108b0d
DTITLE=Reese Wynans and Friends - Sweet Release
DYEAR=2019
DGENRE=Blues
TTITLE0=Crossfire (feat. Chris Layton, Tommy Shannon, Sam Moore, Kenny
TTITLE0=Wayne Shepherd, Jack Pearson)
TTITLE1=Say What! (feat. Chris Layton, Tommy Shannon and Kenny Wayne She
TTITLE1=pherd)
TTITLE2=That Driving Beat (feat. Mike Farris, Paulie Cerra, Josh Smith
TTITLE2=and Jack Pearson)
TTITLE3=You’re Killing My Love (feat. Doyle Bramhall II and Josh Smith)
TTITLE4=Sweet Release (feat. Keb' Mo', Mike Farris, Jimmy Hall, Bonnie
TTITLE4=Bramlett, Vince Gill, Warren Haynes, Paulie Cerra, Joe Bonama
TTITLE4=ssa, Josh Smith)
TTITLE5=Shape I'm In (feat. Kenny Wayne Shepherd, Noah Hunt, Chris Lay
TTITLE5=ton, Tommy Shannon, Josh Smith, Jack Pearson)
TTITLE6=Hard to Be (feat. Bonnie Bramlett, Jimmy Hall, Joe Bonamassa, 
TTITLE6=Josh Smith, Jack Pearson)
TTITLE7=Riviera Paradise (feat. Chris Layton, Tommy Shannon, Kenny Way
TTITLE7=ne Shepherd, Joe Bonamassa, Jack Pearson)
TTITLE8=Take the Time (feat. Warren Haynes and Joe Bonamassa)
TTITLE9=So Much Trouble (feat. Joe Bonamassa, Jack Pearson and Mike Hend
TTITLE9=erson)
TTITLE10=I’ve Got a Right To Be Blue (feat. Keb' Mo')
TTITLE11=Soul Island (feat. Josh Smith and Jack Pearson)
TTITLE12=Blackbird
EXTD=
EXTT0=
EXTT1=
EXTT2=
EXTT3=
EXTT4=
EXTT5=
EXTT6=
EXTT7=
EXTT8=
EXTT9=
EXTT10=
EXTT11=
EXTT12=
PLAYORDER=
